<?xml version="1.0" encoding="UTF-8"?>
<svg width="24px" height="24px" viewBox="0 0 24 24" version="1.1" xmlns="http://www.w3.org/2000/svg" xmlns:xlink="http://www.w3.org/1999/xlink">
    <!-- Generator: Sketch 52.4 (67378) - http://www.bohemiancoding.com/sketch -->
    <title>iconmonstr-user-2</title>
    <desc>Created with Sketch.</desc>
    <g id="Page-1" stroke="none" stroke-width="1" fill="none" fill-rule="evenodd">
        <g id="Artboard" transform="translate(-545.000000, -177.000000)" fill="#000000">
            <g id="iconmonstr-user-2" transform="translate(545.000000, 177.000000)">
                <path d="M20.822,18.096 C17.383,17.302 14.181,16.606 15.732,13.678 C20.451,4.766 16.983,0 12,0 C6.918,0 3.535,4.949 8.268,13.678 C9.866,16.623 6.543,17.319 3.178,18.096 C0.199,18.784 8.8817842e-16,20.239 8.8817842e-16,22.759 L0.005,24 L2,24 C2,20.866 1.875,20.45 3.838,19.997 C6.689,19.34 9.381,18.719 10.363,16.541 C10.722,15.746 10.955,14.438 10.025,12.726 C7.967,8.927 7.447,5.637 8.602,3.7 C9.956,1.425 14.028,1.436 15.369,3.666 C16.519,5.577 16.008,8.885 13.966,12.742 C13.056,14.461 13.295,15.765 13.656,16.556 C14.646,18.723 17.363,19.35 20.24,20.014 C22.119,20.45 22,20.896 22,24 L23.995,24 L24,22.759 C24,20.239 23.801,18.784 20.822,18.096 Z" id="Path"></path>
            </g>
        </g>
    </g>
</svg>