<?xml version="1.0" encoding="UTF-8"?>
<svg width="22px" height="46px" viewBox="0 0 22 46" version="1.1" xmlns="http://www.w3.org/2000/svg" xmlns:xlink="http://www.w3.org/1999/xlink">
    <!-- Generator: Sketch 51.3 (57544) - http://www.bohemiancoding.com/sketch -->
    <title>noun_Diamond_2216363 Copy 2</title>
    <desc>Created with Sketch.</desc>
    <defs></defs>
    <g id="Page-1" stroke="none" stroke-width="1" fill="none" fill-rule="evenodd">
        <g id="Artboard-2" transform="translate(-313.000000, -176.000000)" fill="#1C3144" fill-rule="nonzero">
            <g id="noun_Diamond_2216363-Copy-2" transform="translate(313.000000, 176.000000)">
                <g id="Group">
                    <path d="M21.3324786,7.84102564 C21.3230769,7.84102564 21.3230769,7.84102564 21.3324786,7.84102564 L12.1,13.1717949 C12.1470085,13.3034188 12.1752137,13.4444444 12.1752137,13.5948718 L12.1752137,32.9435897 L21.9153846,38.565812 L21.9153846,7.5025641 L21.3324786,7.84102564 Z" id="Shape"></path>
                    <path d="M9.82478632,13.5948718 C9.82478632,13.4444444 9.85299145,13.3034188 9.9,13.1717949 L0.0846153846,7.5025641 L0.0846153846,38.9324786 L9.82478632,32.9623932 L9.82478632,13.5948718 Z" id="Shape"></path>
                    <path d="M11,11.0940171 L20.7401709,5.47179487 L11.582906,0.178632479 C11.2162393,-0.0282051282 10.774359,-0.0282051282 10.4076923,0.178632479 L1.25042735,5.46239316 L11,11.0940171 Z" id="Shape"></path>
                    <path d="M11.0376068,34.9931624 L1.58888889,40.7846154 L10.417094,45.8803419 C10.5957265,45.9837607 10.8025641,46.0401709 11,46.0401709 C11.1974359,46.0401709 11.4042735,45.9837607 11.582906,45.8803419 L20.7401709,40.5965812 L11.0376068,34.9931624 Z" id="Shape"></path>
                </g>
            </g>
        </g>
    </g>
</svg>